<svg xmlns="http://www.w3.org/2000/svg" xmlns:xlink="http://www.w3.org/1999/xlink" width="1123" zoomAndPan="magnify" viewBox="0 0 842.25 842.249997" height="1123" preserveAspectRatio="xMidYMid meet" version="1.0"><defs><g/><clipPath id="dcb7b08939"><path d="M 0 0 L 841.5 0 L 841.5 841.5 L 0 841.5 Z M 0 0 " clip-rule="nonzero"/></clipPath><clipPath id="d10c1ba6e8"><path d="M 23 0 L 841.5 0 L 841.5 841.5 L 23 841.5 Z M 23 0 " clip-rule="nonzero"/></clipPath><clipPath id="c7b6573753"><rect x="0" width="819" y="0" height="842"/></clipPath><clipPath id="2bf16954a3"><path d="M 0 34 L 609.296875 34 L 609.296875 795 L 0 795 Z M 0 34 " clip-rule="nonzero"/></clipPath><clipPath id="27626af0d5"><rect x="0" width="610" y="0" height="839"/></clipPath><clipPath id="27b240a115"><rect x="0" width="842" y="0" height="842"/></clipPath></defs><g clip-path="url(#dcb7b08939)"><g transform="matrix(1, 0, 0, 1, 0, 0.000000000000015196)"><g clip-path="url(#27b240a115)"><g clip-path="url(#d10c1ba6e8)"><g transform="matrix(1, 0, 0, 1, 23, 0.000000000000015196)"><g clip-path="url(#c7b6573753)"><g fill="#ffffff" fill-opacity="1"><g transform="translate(0.963733, 806.343508)"><g><path d="M 458.796875 -772 L 735.609375 -108.078125 C 746.640625 -82.347656 758.035156 -58.820312 769.796875 -37.5 C 781.554688 -16.175781 788.539062 -3.675781 790.75 0 L 657.296875 0 L 393.71875 -631.9375 C 387.101562 -648.113281 378.460938 -668.515625 367.796875 -693.140625 C 357.140625 -717.773438 346.664062 -738.179688 336.375 -754.359375 C 329.019531 -717.597656 315.234375 -678.628906 295.015625 -637.453125 C 274.796875 -596.273438 251.816406 -554.546875 226.078125 -512.265625 C 200.347656 -469.992188 175.535156 -428.640625 151.640625 -388.203125 C 127.742188 -347.765625 108.078125 -309.535156 92.640625 -273.515625 C 72.785156 -226.453125 63.59375 -188.582031 65.0625 -159.90625 C 66.539062 -131.238281 75.550781 -112.492188 92.09375 -103.671875 C 108.632812 -94.847656 130.140625 -96.6875 156.609375 -109.1875 C 172.785156 -117.269531 190.0625 -129.210938 208.4375 -145.015625 C 226.820312 -160.828125 245.570312 -178.472656 264.6875 -197.953125 C 283.800781 -217.441406 301.8125 -236.742188 318.71875 -255.859375 C 335.632812 -274.972656 350.707031 -291.515625 363.9375 -305.484375 C 377.90625 -320.191406 393.710938 -331.40625 411.359375 -339.125 C 429.003906 -346.84375 446.648438 -346.660156 464.296875 -338.578125 C 471.648438 -335.640625 479.921875 -329.941406 489.109375 -321.484375 C 498.304688 -313.023438 507.316406 -304.203125 516.140625 -295.015625 C 524.960938 -285.828125 532.316406 -278.289062 538.203125 -272.40625 C 522.023438 -276.082031 504.007812 -272.957031 484.15625 -263.03125 C 464.300781 -253.101562 445.1875 -240.050781 426.8125 -223.875 C 406.21875 -206.226562 384.890625 -184.90625 362.828125 -159.90625 C 340.773438 -134.914062 317.984375 -110.101562 294.453125 -85.46875 C 270.929688 -60.84375 246.300781 -40.441406 220.5625 -24.265625 C 194.832031 -8.085938 168.367188 0 141.171875 0 C 83.085938 0 44.117188 -23.523438 24.265625 -70.578125 C 13.972656 -96.316406 10.660156 -123.890625 14.328125 -153.296875 C 18.003906 -182.703125 26.273438 -212.660156 39.140625 -243.171875 C 52.015625 -273.691406 67.273438 -303.65625 84.921875 -333.0625 C 102.566406 -362.46875 120.578125 -390.222656 138.953125 -416.328125 C 157.335938 -442.429688 173.148438 -465.773438 186.390625 -486.359375 C 196.679688 -501.796875 209.363281 -522.015625 224.4375 -547.015625 C 239.507812 -572.015625 254.765625 -598.664062 270.203125 -626.96875 C 285.640625 -655.28125 298.6875 -682.300781 309.34375 -708.03125 C 320.007812 -733.769531 325.710938 -755.09375 326.453125 -772 Z M 458.796875 -772 "/></g></g></g></g></g></g><g transform="matrix(1, 0, 0, 1, 0, 0.000000000000015196)"><g clip-path="url(#27626af0d5)"><g clip-path="url(#2bf16954a3)"><g fill="#ffffff" fill-opacity="1"><g transform="translate(609.246529, 34.927897)"><g><path d="M -163.796875 738.71875 C -147.890625 738.71875 -130.535156 737.269531 -111.734375 734.375 C -92.929688 731.488281 -75.03125 728.238281 -58.03125 724.625 C -41.039062 721.007812 -27.117188 717.753906 -16.265625 714.859375 C -5.421875 711.960938 0 710.515625 0 710.515625 L 0 759.34375 L -621.578125 759.34375 L -621.578125 710.515625 C -621.578125 710.515625 -616.148438 711.960938 -605.296875 714.859375 C -594.453125 717.753906 -580.53125 721.007812 -563.53125 724.625 C -546.539062 728.238281 -528.644531 731.488281 -509.84375 734.375 C -491.039062 737.269531 -473.679688 738.71875 -457.765625 738.71875 L -366.65625 738.71875 L -366.65625 119.328125 C -366.65625 87.503906 -368.460938 59.660156 -372.078125 35.796875 C -375.691406 11.929688 -377.5 0 -377.5 0 L -245.15625 0 C -245.15625 0 -246.78125 11.929688 -250.03125 35.796875 C -253.289062 59.660156 -254.921875 87.503906 -254.921875 119.328125 L -254.921875 738.71875 Z M -163.796875 738.71875 "/></g></g></g></g></g></g></g></g></g></svg>